<?xml version="1.0" encoding="UTF-8" standalone="no"?><!DOCTYPE svg PUBLIC "-//W3C//DTD SVG 1.1//EN" "http://www.w3.org/Graphics/SVG/1.1/DTD/svg11.dtd"><svg width="100%" height="100%" viewBox="0 0 1183 223" version="1.1" xmlns="http://www.w3.org/2000/svg" xmlns:xlink="http://www.w3.org/1999/xlink" xml:space="preserve" xmlns:serif="http://www.serif.com/" style="fill-rule:evenodd;clip-rule:evenodd;stroke-linejoin:round;stroke-miterlimit:2;"><g><path d="M116.31,107.674c3.776,-9.68 6.994,-20.546 9.657,-32.598c2.662,-12.052 3.993,-21.999 3.993,-29.84c-0,-5.131 -1.21,-7.696 -3.63,-7.696c-2.227,0 -6.293,2.953 -12.198,8.858c-8.809,9.486 -16.65,20.401 -23.523,32.743c-6.873,12.343 -12.149,24.952 -15.827,37.827c-3.679,12.875 -5.518,25.459 -5.518,37.753c-0,9.681 1.04,16.312 3.122,19.893c2.081,3.582 6.026,5.373 11.834,5.373c5.034,-0 11.278,-1.404 18.731,-4.211c16.844,-6.679 34.656,-16.215 53.436,-28.606c8.325,-5.324 13.601,-7.986 15.828,-7.986c3.194,0 4.791,1.597 4.791,4.792l0,0.29c-0.484,4.356 -1.984,9.293 -4.501,14.811c-5.034,10.649 -9.39,17.619 -13.068,20.91c-6.196,5.518 -14.69,10.939 -25.484,16.263c-10.794,5.324 -21.854,9.68 -33.18,13.069c-11.326,3.388 -20.812,5.082 -28.46,5.082c-8.809,-0 -17.134,-1.67 -24.975,-5.01c-7.841,-3.34 -14.666,-7.914 -20.474,-13.722c-5.809,-5.808 -10.358,-12.584 -13.65,-20.329c-3.291,-7.744 -4.937,-16.021 -4.937,-24.83c0,-6.679 1.065,-13.915 3.195,-21.708c2.129,-7.793 5.227,-15.949 9.293,-24.467c4.066,-8.519 8.664,-16.505 13.795,-23.959c3,-4.453 6.122,-8.713 9.365,-12.778c3.243,-4.066 6.825,-8.035 10.746,-11.907c3.92,-3.872 8.204,-7.599 12.85,-11.181c4.647,-3.582 8.906,-6.631 12.778,-9.148c6.777,-4.55 13.795,-8.519 21.055,-11.907c7.26,-3.388 13.988,-5.905 20.184,-7.551c6.195,-1.645 11.858,-2.468 16.989,-2.468c12.681,-0 22.604,3.291 29.767,9.874c7.164,6.583 10.745,15.682 10.745,27.299c0,12.197 -3.001,24.951 -9.002,38.261c-6.002,13.311 -13.989,24.951 -23.959,34.922c-6.873,7.067 -13.698,12.633 -20.474,16.699c-6.777,4.066 -12.875,6.099 -18.296,6.099c-4.744,-0 -7.115,-2.275 -7.115,-6.825c-0,-2.13 1.306,-5.082 3.92,-8.858c3.679,-5.227 7.744,-12.971 12.197,-23.233Z" style="fill:#be8f8f;fill-opacity:0;fill-rule:nonzero;stroke:#3f566a;stroke-width:12.42px;"/><path d="M279.377,55.11c-6.68,6.679 -11.544,12.173 -14.594,16.481c-3.049,4.308 -6.316,10.479 -9.801,18.514c-2.614,5.808 -4.501,11.955 -5.663,18.441c-1.452,5.711 -2.178,13.068 -2.178,22.071c-0,12.681 1.21,23.257 3.63,31.727c2.42,8.471 6.002,14.86 10.745,19.168c4.744,4.307 10.455,6.461 17.135,6.461c5.421,0 10.963,-1.984 16.626,-5.953c5.663,-3.969 10.793,-9.172 15.391,-15.61c4.599,-6.437 8.301,-13.625 11.109,-21.563c2.807,-7.938 4.211,-15.585 4.211,-22.942c-0,-13.263 -4.55,-27.105 -13.65,-41.529c-3.388,-5.808 -5.082,-9.777 -5.082,-11.907c0,-3.969 2.178,-7.938 6.534,-11.907c4.937,-4.743 10.6,-8.954 16.989,-12.633c6.389,-3.678 11.423,-5.518 15.102,-5.518c2.129,0 4.38,0.508 6.752,1.525c2.372,1.016 4.187,2.299 5.445,3.848c3.098,3.194 5.663,9.075 7.696,17.642c2.033,8.568 3.049,17.643 3.049,27.226c0,22.846 -4.67,43.925 -14.012,63.238c-9.342,19.312 -22.023,34.607 -38.044,45.885c-16.021,11.277 -33.373,16.916 -52.056,16.916c-10.745,0 -21.394,-1.984 -31.946,-5.953c-10.551,-3.969 -19.118,-9.293 -25.701,-15.973c-11.132,-11.132 -16.699,-25.701 -16.699,-43.707c0,-10.455 2.033,-21.539 6.099,-33.252c4.066,-11.713 9.656,-23.112 16.771,-34.196c7.115,-11.084 15.344,-21.224 24.685,-30.421c9.342,-9.196 18.95,-16.456 28.824,-21.78c9.002,-4.841 18.683,-8.713 29.041,-11.617c10.358,-2.904 19.457,-4.356 27.298,-4.356c11.036,-0 16.554,1.694 16.554,5.082c-0,1.355 -1.162,3.437 -3.485,6.244c-4.259,3.969 -7.962,6.776 -11.108,8.422c-3.146,1.646 -8.301,3.485 -15.465,5.518c-7.744,2.323 -13.359,4.428 -16.844,6.316c-3.484,1.888 -7.937,5.252 -13.358,10.092Z" style="fill:#be8f8f;fill-opacity:0;fill-rule:nonzero;stroke:#3f566a;stroke-width:12.42px;"/><path d="M421.678,119.872c-8.325,-8.422 -14.182,-15.9 -17.57,-22.435c-3.388,-6.534 -5.082,-13.528 -5.082,-20.982c0,-11.229 3.412,-21.781 10.237,-31.655c6.825,-9.874 15.973,-17.715 27.444,-23.523c11.471,-5.808 23.79,-8.712 36.955,-8.712c14.908,-0 26.379,3.097 34.414,9.293c8.034,6.195 12.052,14.956 12.052,26.282c-0,5.421 -1.452,11.036 -4.356,16.844c-2.905,5.808 -6.922,11.229 -12.052,16.263c-3.485,3.485 -6.728,6.123 -9.729,7.914c-3.001,1.791 -5.518,2.686 -7.551,2.686c-2.517,0 -3.775,-1.936 -3.775,-5.808c-0,0.097 0.193,-1.404 0.581,-4.502c0.58,-4.549 0.871,-8.615 0.871,-12.197c-0,-5.034 -0.75,-10.092 -2.251,-15.174c-1.5,-5.082 -3.436,-9.341 -5.808,-12.778c-2.372,-3.437 -4.623,-5.155 -6.752,-5.155c-1.065,0 -2.275,0.824 -3.63,2.471c-2.614,2.715 -4.647,6.083 -6.099,10.105c-1.452,4.022 -2.178,7.778 -2.178,11.267c-0,4.363 0.621,8.41 1.864,12.141c1.242,3.731 3.415,7.53 6.518,11.395c3.103,3.866 7.224,8.118 12.362,12.757c8.145,7.343 14.42,13.774 18.824,19.292c4.405,5.518 7.624,11.011 9.657,16.481c2.033,5.469 3.049,11.398 3.049,17.787c-0,11.23 -2.953,22.072 -8.858,32.526c-5.905,10.455 -13.722,18.901 -23.45,25.339c-9.729,6.437 -19.773,9.656 -30.131,9.656c-9.874,0 -19.506,-2.13 -28.895,-6.389c-9.39,-4.259 -18.2,-10.358 -26.428,-18.296c-8.519,-8.422 -12.778,-15.876 -12.778,-22.362c-0,-3.969 1.888,-7.841 5.663,-11.616c3.872,-3.872 8.64,-7.164 14.303,-9.874c5.663,-2.711 10.43,-4.066 14.303,-4.066c2.226,0 4.114,0.557 5.663,1.67c1.548,1.113 2.928,3.001 4.138,5.663c1.21,2.662 2.396,6.268 3.557,10.818c1.84,6.486 3.534,11.302 5.083,14.448c1.549,3.146 3.727,6.268 6.534,9.366c2.904,2.904 5.953,4.356 9.148,4.356c3.872,-0 6.921,-1.526 9.148,-4.576c2.226,-3.051 3.34,-7.241 3.34,-12.57c-0,-8.33 -2.948,-16.659 -8.842,-24.989c-1.74,-2.809 -3.648,-5.303 -5.726,-7.482c-2.077,-2.18 -6.606,-6.362 -13.586,-12.547c-2.133,-1.74 -5.527,-4.784 -10.181,-9.132Z" style="fill:#be8f8f;fill-opacity:0;fill-rule:nonzero;stroke:#3f566a;stroke-width:12.42px;"/><path d="M701.941,136.949l2.904,-6.523c22.843,-51.511 39.394,-84.999 49.654,-100.462c1.644,-2.126 3.047,-3.794 4.209,-5.001c1.161,-1.208 2.492,-2.295 3.993,-3.262c1.5,-0.966 3.461,-1.933 5.881,-2.899c6.968,-2.997 15.969,-4.495 27.003,-4.495c5.71,0 9.316,0.484 10.816,1.452c1.501,0.968 2.251,3.146 2.251,6.534c-0,2.614 -0.097,5.421 -0.291,8.422c-0.774,17.425 -1.161,29.816 -1.161,37.173c-0,18.586 1.258,36.205 3.775,52.855c1.646,9.293 4.066,18.732 7.26,28.315c3.388,8.519 6.631,15.053 9.729,19.603c3.679,5.034 6.776,8.712 9.293,11.036c3.098,3.097 4.647,5.469 4.647,7.115c-0,3.001 -2.565,7.066 -7.696,12.197c-8.616,8.325 -17.231,12.488 -25.847,12.488c-12.1,-0 -23.087,-5.179 -32.961,-15.537c-5.034,-5.034 -9.027,-10.625 -11.98,-16.772c-2.952,-6.147 -5.155,-13.746 -6.607,-22.797c-1.452,-9.051 -2.42,-20.547 -2.904,-34.486c-0.677,-15.102 -1.065,-23.621 -1.161,-25.557l-0.581,0c-6.104,11.714 -11.189,21.491 -15.258,29.332c-4.069,7.841 -7.387,14.327 -9.954,19.458c-2.566,5.13 -5.594,11.277 -9.082,18.441c-11.043,22.845 -18.26,36.64 -21.651,41.383c-0.194,0.194 -0.581,0.63 -1.162,1.307c-0.581,0.678 -1.114,1.21 -1.6,1.597c-1.645,1.549 -3.509,2.735 -5.592,3.558c-2.083,0.823 -3.851,1.234 -5.305,1.234c-4.069,0 -8.549,-2.541 -13.44,-7.623c-4.892,-5.082 -9.179,-11.641 -12.86,-19.675c-3.779,-8.519 -6.859,-17.21 -9.242,-26.073c-2.383,-8.863 -4.475,-19.372 -6.274,-31.529c-1.799,-12.156 -3.379,-27.001 -4.74,-44.533l-0.584,0c-2.91,6.388 -5.092,11.179 -6.547,14.374c-1.455,3.194 -3.687,8.131 -6.695,14.809c-3.007,6.679 -4.754,10.55 -5.24,11.613c-3.978,8.81 -8.15,17.715 -12.516,26.716c-4.366,9.001 -7.878,15.925 -10.537,20.772c-2.659,4.847 -5.584,9.646 -8.774,14.395c-1.45,2.23 -4.013,5.38 -7.687,9.452c-5.704,5.429 -11.94,9.669 -18.709,12.723c-6.768,3.053 -13.198,4.579 -19.289,4.579c-2.32,0 -4.351,-0.581 -6.091,-1.742c-1.74,-1.162 -2.61,-2.662 -2.61,-4.502c-0,-1.645 1.307,-3.823 3.923,-6.534c1.453,-1.742 4.602,-6.195 9.445,-13.359l8.429,-13.068c5.23,-7.745 13.125,-21.636 23.684,-41.674l6.974,-13.069c16.276,-31.171 27.271,-52.492 32.986,-63.963c5.715,-11.471 8.573,-18.127 8.573,-19.966c-0,-2.033 -1.464,-4.308 -4.393,-6.825c-2.246,-1.839 -3.369,-3.436 -3.369,-4.791c0,-2.13 2.81,-4.139 8.431,-6.026c5.621,-1.888 11.725,-2.832 18.314,-2.832c13.277,0 22.726,2.953 28.345,8.858c3.489,3.678 6.736,10.914 9.74,21.708c3.004,10.794 6.015,26.424 9.032,46.892c0.195,1.159 0.342,2.052 0.439,2.68c0.098,0.628 0.195,1.183 0.292,1.665c0.097,0.483 0.145,1.11 0.145,1.883c0.585,2.703 0.878,4.489 0.878,5.357c2.043,12.454 3.601,20.492 4.672,24.113c1.07,3.621 2.628,6.783 4.673,9.486Z" style="fill:#be8f8f;fill-opacity:0;fill-rule:nonzero;stroke:#3f566a;stroke-width:12.42px;"/><path d="M935.852,55.11c-6.679,6.679 -11.544,12.173 -14.593,16.481c-3.049,4.308 -6.317,10.479 -9.802,18.514c-2.613,5.808 -4.501,11.955 -5.663,18.441c-1.452,5.711 -2.178,13.068 -2.178,22.071c0,12.681 1.21,23.257 3.63,31.727c2.421,8.471 6.002,14.86 10.746,19.168c4.743,4.307 10.455,6.461 17.134,6.461c5.421,0 10.963,-1.984 16.626,-5.953c5.663,-3.969 10.794,-9.172 15.392,-15.61c4.598,-6.437 8.301,-13.625 11.108,-21.563c2.807,-7.938 4.211,-15.585 4.211,-22.942c0,-13.263 -4.55,-27.105 -13.649,-41.529c-3.388,-5.808 -5.082,-9.777 -5.082,-11.907c-0,-3.969 2.178,-7.938 6.534,-11.907c4.937,-4.743 10.6,-8.954 16.989,-12.633c6.389,-3.678 11.423,-5.518 15.101,-5.518c2.13,0 4.381,0.508 6.752,1.525c2.372,1.016 4.187,2.299 5.446,3.848c3.097,3.194 5.663,9.075 7.696,17.642c2.032,8.568 3.049,17.643 3.049,27.226c-0,22.846 -4.671,43.925 -14.013,63.238c-9.341,19.312 -22.022,34.607 -38.043,45.885c-16.022,11.277 -33.374,16.916 -52.057,16.916c-10.745,0 -21.393,-1.984 -31.945,-5.953c-10.552,-3.969 -19.119,-9.293 -25.701,-15.973c-11.133,-11.132 -16.699,-25.701 -16.699,-43.707c-0,-10.455 2.033,-21.539 6.099,-33.252c4.065,-11.713 9.656,-23.112 16.771,-34.196c7.115,-11.084 15.343,-21.224 24.685,-30.421c9.341,-9.196 18.949,-16.456 28.823,-21.78c9.003,-4.841 18.683,-8.713 29.041,-11.617c10.358,-2.904 19.458,-4.356 27.299,-4.356c11.036,-0 16.553,1.694 16.553,5.082c0,1.355 -1.161,3.437 -3.484,6.244c-4.26,3.969 -7.963,6.776 -11.109,8.422c-3.146,1.646 -8.301,3.485 -15.464,5.518c-7.744,2.323 -13.359,4.428 -16.844,6.316c-3.485,1.888 -7.938,5.252 -13.359,10.092Z" style="fill:#be8f8f;fill-opacity:0;fill-rule:nonzero;stroke:#3f566a;stroke-width:12.42px;"/><path d="M1078.15,119.872c-8.325,-8.422 -14.182,-15.9 -17.57,-22.435c-3.388,-6.534 -5.082,-13.528 -5.082,-20.982c-0,-11.229 3.412,-21.781 10.237,-31.655c6.824,-9.874 15.972,-17.715 27.444,-23.523c11.471,-5.808 23.789,-8.712 36.954,-8.712c14.908,-0 26.379,3.097 34.414,9.293c8.035,6.195 12.052,14.956 12.052,26.282c0,5.421 -1.452,11.036 -4.356,16.844c-2.904,5.808 -6.921,11.229 -12.052,16.263c-3.485,3.485 -6.728,6.123 -9.729,7.914c-3.001,1.791 -5.518,2.686 -7.55,2.686c-2.517,0 -3.776,-1.936 -3.776,-5.808c0,0.097 0.194,-1.404 0.581,-4.502c0.581,-4.549 0.871,-8.615 0.871,-12.197c0,-5.034 -0.75,-10.092 -2.25,-15.174c-1.501,-5.082 -3.437,-9.341 -5.809,-12.778c-2.371,-3.437 -4.622,-5.155 -6.752,-5.155c-1.065,0 -2.275,0.824 -3.63,2.471c-2.614,2.715 -4.646,6.083 -6.099,10.105c-1.452,4.022 -2.178,7.778 -2.178,11.267c0,4.363 0.622,8.41 1.864,12.141c1.243,3.731 3.416,7.53 6.519,11.395c3.103,3.866 7.223,8.118 12.361,12.757c8.146,7.343 14.42,13.774 18.825,19.292c4.405,5.518 7.623,11.011 9.656,16.481c2.033,5.469 3.049,11.398 3.049,17.787c0,11.23 -2.952,22.072 -8.857,32.526c-5.905,10.455 -13.722,18.901 -23.451,25.339c-9.729,6.437 -19.772,9.656 -30.13,9.656c-9.874,0 -19.506,-2.13 -28.896,-6.389c-9.39,-4.259 -18.199,-10.358 -26.427,-18.296c-8.519,-8.422 -12.779,-15.876 -12.779,-22.362c0,-3.969 1.888,-7.841 5.663,-11.616c3.873,-3.872 8.64,-7.164 14.303,-9.874c5.663,-2.711 10.431,-4.066 14.303,-4.066c2.227,0 4.114,0.557 5.663,1.67c1.549,1.113 2.928,3.001 4.138,5.663c1.21,2.662 2.396,6.268 3.558,10.818c1.839,6.486 3.533,11.302 5.082,14.448c1.549,3.146 3.727,6.268 6.534,9.366c2.905,2.904 5.954,4.356 9.148,4.356c3.873,-0 6.922,-1.526 9.148,-4.576c2.227,-3.051 3.34,-7.241 3.34,-12.57c0,-8.33 -2.947,-16.659 -8.842,-24.989c-1.739,-2.809 -3.648,-5.303 -5.725,-7.482c-2.078,-2.18 -6.606,-6.362 -13.587,-12.547c-2.133,-1.74 -5.526,-4.784 -10.18,-9.132Z" style="fill:#be8f8f;fill-opacity:0;fill-rule:nonzero;stroke:#3f566a;stroke-width:12.42px;"/></g></svg>